<mxfile host="Electron" modified="2023-11-02T14:28:49.443Z" agent="Mozilla/5.0 (X11; Linux x86_64) AppleWebKit/537.36 (KHTML, like Gecko) draw.io/22.0.3 Chrome/114.0.5735.289 Electron/25.8.4 Safari/537.36" etag="hwQ_n8DxMAe6Cxslc_of" version="22.0.3" type="device">
  <diagram name="Page-1" id="hgoWUaOdL7qasZmcg-UU">
    <mxGraphModel dx="3350" dy="1458" grid="1" gridSize="10" guides="1" tooltips="1" connect="1" arrows="1" fold="1" page="0" pageScale="1" pageWidth="827" pageHeight="1169" math="0" shadow="0">
      <root>
        <mxCell id="0" />
        <mxCell id="1" parent="0" />
        <mxCell id="BOOuBiqsjelleKGZFZXg-1" value="AWS Cloud" style="points=[[0,0],[0.25,0],[0.5,0],[0.75,0],[1,0],[1,0.25],[1,0.5],[1,0.75],[1,1],[0.75,1],[0.5,1],[0.25,1],[0,1],[0,0.75],[0,0.5],[0,0.25]];outlineConnect=0;gradientColor=none;html=1;whiteSpace=wrap;fontSize=12;fontStyle=0;container=1;pointerEvents=0;collapsible=0;recursiveResize=0;shape=mxgraph.aws4.group;grIcon=mxgraph.aws4.group_aws_cloud_alt;strokeColor=#232F3E;fillColor=none;verticalAlign=top;align=left;spacingLeft=30;fontColor=#232F3E;dashed=0;" parent="1" vertex="1">
          <mxGeometry x="-760" y="-40" width="2000" height="960" as="geometry" />
        </mxCell>
        <mxCell id="BOOuBiqsjelleKGZFZXg-3" value="Region" style="points=[[0,0],[0.25,0],[0.5,0],[0.75,0],[1,0],[1,0.25],[1,0.5],[1,0.75],[1,1],[0.75,1],[0.5,1],[0.25,1],[0,1],[0,0.75],[0,0.5],[0,0.25]];outlineConnect=0;gradientColor=none;html=1;whiteSpace=wrap;fontSize=12;fontStyle=0;container=1;pointerEvents=0;collapsible=0;recursiveResize=0;shape=mxgraph.aws4.group;grIcon=mxgraph.aws4.group_region;strokeColor=#147EBA;fillColor=none;verticalAlign=top;align=left;spacingLeft=30;fontColor=#147EBA;dashed=1;" parent="BOOuBiqsjelleKGZFZXg-1" vertex="1">
          <mxGeometry x="40" y="40" width="1920" height="880" as="geometry" />
        </mxCell>
        <mxCell id="fO4uT-srEPm4jEMGz6wv-1" value="SST NextjsSite" style="fillColor=none;strokeColor=#5A6C86;dashed=1;verticalAlign=top;fontStyle=0;fontColor=#5A6C86;whiteSpace=wrap;html=1;" parent="BOOuBiqsjelleKGZFZXg-3" vertex="1">
          <mxGeometry x="82" y="202" width="478" height="480" as="geometry" />
        </mxCell>
        <mxCell id="fO4uT-srEPm4jEMGz6wv-17" value="ISR Revalidation&lt;br&gt;" style="fillColor=none;strokeColor=#5A6C86;dashed=1;verticalAlign=top;fontStyle=0;fontColor=#5A6C86;whiteSpace=wrap;html=1;" parent="BOOuBiqsjelleKGZFZXg-3" vertex="1">
          <mxGeometry x="350" y="242" width="183" height="398" as="geometry" />
        </mxCell>
        <mxCell id="K7cg77Lro_AQ_rNfYcJF-16" value="" style="group" parent="BOOuBiqsjelleKGZFZXg-3" vertex="1" connectable="0">
          <mxGeometry x="122" y="412" width="60" height="90" as="geometry" />
        </mxCell>
        <mxCell id="K7cg77Lro_AQ_rNfYcJF-5" value="Cloudfront" style="sketch=0;points=[[0,0,0],[0.25,0,0],[0.5,0,0],[0.75,0,0],[1,0,0],[0,1,0],[0.25,1,0],[0.5,1,0],[0.75,1,0],[1,1,0],[0,0.25,0],[0,0.5,0],[0,0.75,0],[1,0.25,0],[1,0.5,0],[1,0.75,0]];outlineConnect=0;fontColor=#232F3E;fillColor=#8C4FFF;strokeColor=#ffffff;dashed=0;verticalLabelPosition=bottom;verticalAlign=top;align=center;html=1;fontSize=12;fontStyle=0;aspect=fixed;shape=mxgraph.aws4.resourceIcon;resIcon=mxgraph.aws4.cloudfront;" parent="K7cg77Lro_AQ_rNfYcJF-16" vertex="1">
          <mxGeometry width="60" height="60" as="geometry" />
        </mxCell>
        <mxCell id="K7cg77Lro_AQ_rNfYcJF-1" value="Cognito" style="sketch=0;points=[[0,0,0],[0.25,0,0],[0.5,0,0],[0.75,0,0],[1,0,0],[0,1,0],[0.25,1,0],[0.5,1,0],[0.75,1,0],[1,1,0],[0,0.25,0],[0,0.5,0],[0,0.75,0],[1,0.25,0],[1,0.5,0],[1,0.75,0]];outlineConnect=0;fontColor=#232F3E;fillColor=#DD344C;strokeColor=#ffffff;dashed=0;verticalLabelPosition=bottom;verticalAlign=top;align=center;html=1;fontSize=12;fontStyle=0;aspect=fixed;shape=mxgraph.aws4.resourceIcon;resIcon=mxgraph.aws4.cognito;" parent="BOOuBiqsjelleKGZFZXg-3" vertex="1">
          <mxGeometry x="130" y="90" width="60" height="60" as="geometry" />
        </mxCell>
        <mxCell id="fO4uT-srEPm4jEMGz6wv-6" value="Server&lt;br&gt;Function" style="sketch=0;outlineConnect=0;fontColor=#232F3E;gradientColor=none;fillColor=#ED7100;strokeColor=none;dashed=0;verticalLabelPosition=bottom;verticalAlign=top;align=center;html=1;fontSize=12;fontStyle=0;aspect=fixed;pointerEvents=1;shape=mxgraph.aws4.lambda_function;" parent="BOOuBiqsjelleKGZFZXg-3" vertex="1">
          <mxGeometry x="262.31" y="412" width="60" height="60" as="geometry" />
        </mxCell>
        <mxCell id="fO4uT-srEPm4jEMGz6wv-10" value="Image&lt;br style=&quot;border-color: var(--border-color); color: rgb(0, 0, 0);&quot;&gt;&lt;span style=&quot;color: rgb(0, 0, 0);&quot;&gt;Optimization&lt;/span&gt;&lt;br style=&quot;border-color: var(--border-color); color: rgb(0, 0, 0);&quot;&gt;&lt;span style=&quot;color: rgb(0, 0, 0);&quot;&gt;Function&lt;/span&gt;" style="sketch=0;outlineConnect=0;fontColor=#232F3E;gradientColor=none;fillColor=#ED7100;strokeColor=none;dashed=0;verticalLabelPosition=bottom;verticalAlign=top;align=center;html=1;fontSize=12;fontStyle=0;aspect=fixed;pointerEvents=1;shape=mxgraph.aws4.lambda_function;" parent="BOOuBiqsjelleKGZFZXg-3" vertex="1">
          <mxGeometry x="263" y="262" width="60" height="60" as="geometry" />
        </mxCell>
        <mxCell id="fO4uT-srEPm4jEMGz6wv-24" style="edgeStyle=orthogonalEdgeStyle;rounded=0;orthogonalLoop=1;jettySize=auto;html=1;endArrow=none;endFill=0;startArrow=classic;startFill=1;" parent="BOOuBiqsjelleKGZFZXg-3" source="fO4uT-srEPm4jEMGz6wv-12" target="fO4uT-srEPm4jEMGz6wv-20" edge="1">
          <mxGeometry relative="1" as="geometry" />
        </mxCell>
        <mxCell id="fO4uT-srEPm4jEMGz6wv-25" value="update cache" style="edgeLabel;html=1;align=center;verticalAlign=middle;resizable=0;points=[];" parent="fO4uT-srEPm4jEMGz6wv-24" vertex="1" connectable="0">
          <mxGeometry x="-0.797" y="2" relative="1" as="geometry">
            <mxPoint x="49" y="2" as="offset" />
          </mxGeometry>
        </mxCell>
        <mxCell id="fO4uT-srEPm4jEMGz6wv-12" value="Asset Bucket" style="sketch=0;outlineConnect=0;fontColor=#232F3E;gradientColor=none;fillColor=#7AA116;strokeColor=none;dashed=0;verticalLabelPosition=bottom;verticalAlign=top;align=center;html=1;fontSize=12;fontStyle=0;aspect=fixed;pointerEvents=1;shape=mxgraph.aws4.bucket_with_objects;" parent="BOOuBiqsjelleKGZFZXg-3" vertex="1">
          <mxGeometry x="264.62" y="541" width="57.69" height="60" as="geometry" />
        </mxCell>
        <mxCell id="fO4uT-srEPm4jEMGz6wv-13" style="edgeStyle=orthogonalEdgeStyle;rounded=0;orthogonalLoop=1;jettySize=auto;html=1;" parent="BOOuBiqsjelleKGZFZXg-3" source="K7cg77Lro_AQ_rNfYcJF-5" target="fO4uT-srEPm4jEMGz6wv-6" edge="1">
          <mxGeometry relative="1" as="geometry" />
        </mxCell>
        <mxCell id="fO4uT-srEPm4jEMGz6wv-14" style="edgeStyle=orthogonalEdgeStyle;rounded=0;orthogonalLoop=1;jettySize=auto;html=1;" parent="BOOuBiqsjelleKGZFZXg-3" source="K7cg77Lro_AQ_rNfYcJF-5" target="fO4uT-srEPm4jEMGz6wv-10" edge="1">
          <mxGeometry relative="1" as="geometry">
            <Array as="points">
              <mxPoint x="222" y="442" />
              <mxPoint x="222" y="292" />
            </Array>
          </mxGeometry>
        </mxCell>
        <mxCell id="fO4uT-srEPm4jEMGz6wv-15" style="edgeStyle=orthogonalEdgeStyle;rounded=0;orthogonalLoop=1;jettySize=auto;html=1;exitX=1;exitY=0.5;exitDx=0;exitDy=0;exitPerimeter=0;" parent="BOOuBiqsjelleKGZFZXg-3" source="K7cg77Lro_AQ_rNfYcJF-5" target="fO4uT-srEPm4jEMGz6wv-12" edge="1">
          <mxGeometry relative="1" as="geometry">
            <Array as="points">
              <mxPoint x="222" y="442" />
              <mxPoint x="222" y="571" />
            </Array>
          </mxGeometry>
        </mxCell>
        <mxCell id="fO4uT-srEPm4jEMGz6wv-22" style="edgeStyle=orthogonalEdgeStyle;rounded=0;orthogonalLoop=1;jettySize=auto;html=1;" parent="BOOuBiqsjelleKGZFZXg-3" source="fO4uT-srEPm4jEMGz6wv-18" target="fO4uT-srEPm4jEMGz6wv-20" edge="1">
          <mxGeometry relative="1" as="geometry">
            <Array as="points">
              <mxPoint x="513" y="442" />
              <mxPoint x="513" y="571" />
            </Array>
          </mxGeometry>
        </mxCell>
        <mxCell id="fO4uT-srEPm4jEMGz6wv-18" value="Revalidation Queue" style="sketch=0;points=[[0,0,0],[0.25,0,0],[0.5,0,0],[0.75,0,0],[1,0,0],[0,1,0],[0.25,1,0],[0.5,1,0],[0.75,1,0],[1,1,0],[0,0.25,0],[0,0.5,0],[0,0.75,0],[1,0.25,0],[1,0.5,0],[1,0.75,0]];outlineConnect=0;fontColor=#232F3E;fillColor=#E7157B;strokeColor=#ffffff;dashed=0;verticalLabelPosition=bottom;verticalAlign=top;align=center;html=1;fontSize=12;fontStyle=0;aspect=fixed;shape=mxgraph.aws4.resourceIcon;resIcon=mxgraph.aws4.sqs;" parent="BOOuBiqsjelleKGZFZXg-3" vertex="1">
          <mxGeometry x="422" y="412" width="60" height="60" as="geometry" />
        </mxCell>
        <mxCell id="fO4uT-srEPm4jEMGz6wv-20" value="Revalidation&amp;nbsp;&lt;span style=&quot;border-color: var(--border-color);&quot;&gt;Function&lt;/span&gt;" style="sketch=0;outlineConnect=0;fontColor=#232F3E;gradientColor=none;fillColor=#ED7100;strokeColor=none;dashed=0;verticalLabelPosition=bottom;verticalAlign=top;align=center;html=1;fontSize=12;fontStyle=0;aspect=fixed;pointerEvents=1;shape=mxgraph.aws4.lambda_function;" parent="BOOuBiqsjelleKGZFZXg-3" vertex="1">
          <mxGeometry x="422" y="541" width="60" height="60" as="geometry" />
        </mxCell>
        <mxCell id="fO4uT-srEPm4jEMGz6wv-21" style="edgeStyle=orthogonalEdgeStyle;rounded=0;orthogonalLoop=1;jettySize=auto;html=1;entryX=0;entryY=0.5;entryDx=0;entryDy=0;entryPerimeter=0;" parent="BOOuBiqsjelleKGZFZXg-3" source="fO4uT-srEPm4jEMGz6wv-6" target="fO4uT-srEPm4jEMGz6wv-18" edge="1">
          <mxGeometry relative="1" as="geometry" />
        </mxCell>
        <mxCell id="fO4uT-srEPm4jEMGz6wv-26" value="Tag to path mapping" style="sketch=0;points=[[0,0,0],[0.25,0,0],[0.5,0,0],[0.75,0,0],[1,0,0],[0,1,0],[0.25,1,0],[0.5,1,0],[0.75,1,0],[1,1,0],[0,0.25,0],[0,0.5,0],[0,0.75,0],[1,0.25,0],[1,0.5,0],[1,0.75,0]];outlineConnect=0;fontColor=#232F3E;fillColor=#C925D1;strokeColor=#ffffff;dashed=0;verticalLabelPosition=bottom;verticalAlign=top;align=center;html=1;fontSize=12;fontStyle=0;aspect=fixed;shape=mxgraph.aws4.resourceIcon;resIcon=mxgraph.aws4.dynamodb;" parent="BOOuBiqsjelleKGZFZXg-3" vertex="1">
          <mxGeometry x="422" y="302" width="60" height="60" as="geometry" />
        </mxCell>
        <mxCell id="fO4uT-srEPm4jEMGz6wv-27" style="edgeStyle=orthogonalEdgeStyle;rounded=0;orthogonalLoop=1;jettySize=auto;html=1;entryX=0;entryY=0.5;entryDx=0;entryDy=0;entryPerimeter=0;" parent="BOOuBiqsjelleKGZFZXg-3" source="fO4uT-srEPm4jEMGz6wv-6" target="fO4uT-srEPm4jEMGz6wv-26" edge="1">
          <mxGeometry relative="1" as="geometry">
            <Array as="points">
              <mxPoint x="370" y="442" />
              <mxPoint x="370" y="332" />
            </Array>
          </mxGeometry>
        </mxCell>
        <mxCell id="BOOuBiqsjelleKGZFZXg-5" value="VPC" style="points=[[0,0],[0.25,0],[0.5,0],[0.75,0],[1,0],[1,0.25],[1,0.5],[1,0.75],[1,1],[0.75,1],[0.5,1],[0.25,1],[0,1],[0,0.75],[0,0.5],[0,0.25]];outlineConnect=0;gradientColor=none;html=1;whiteSpace=wrap;fontSize=12;fontStyle=0;container=1;pointerEvents=0;collapsible=0;recursiveResize=0;shape=mxgraph.aws4.group;grIcon=mxgraph.aws4.group_vpc;strokeColor=#248814;fillColor=none;verticalAlign=top;align=left;spacingLeft=30;fontColor=#AAB7B8;dashed=0;" parent="BOOuBiqsjelleKGZFZXg-3" vertex="1">
          <mxGeometry x="602" y="40" width="1280" height="800" as="geometry" />
        </mxCell>
        <mxCell id="BOOuBiqsjelleKGZFZXg-8" value="Availability Zone" style="fillColor=none;strokeColor=#147EBA;dashed=1;verticalAlign=top;fontStyle=0;fontColor=#147EBA;whiteSpace=wrap;html=1;" parent="BOOuBiqsjelleKGZFZXg-5" vertex="1">
          <mxGeometry x="156" y="59" width="1080" height="320" as="geometry" />
        </mxCell>
        <mxCell id="BOOuBiqsjelleKGZFZXg-9" value="Public subnet" style="points=[[0,0],[0.25,0],[0.5,0],[0.75,0],[1,0],[1,0.25],[1,0.5],[1,0.75],[1,1],[0.75,1],[0.5,1],[0.25,1],[0,1],[0,0.75],[0,0.5],[0,0.25]];outlineConnect=0;gradientColor=none;html=1;whiteSpace=wrap;fontSize=12;fontStyle=0;container=1;pointerEvents=0;collapsible=0;recursiveResize=0;shape=mxgraph.aws4.group;grIcon=mxgraph.aws4.group_security_group;grStroke=0;strokeColor=#248814;fillColor=#E9F3E6;verticalAlign=top;align=left;spacingLeft=30;fontColor=#248814;dashed=0;" parent="BOOuBiqsjelleKGZFZXg-5" vertex="1">
          <mxGeometry x="176" y="84" width="320" height="270" as="geometry" />
        </mxCell>
        <mxCell id="0xDUgUqYRsf32A7aN2De-1" value="Public subnet" style="points=[[0,0],[0.25,0],[0.5,0],[0.75,0],[1,0],[1,0.25],[1,0.5],[1,0.75],[1,1],[0.75,1],[0.5,1],[0.25,1],[0,1],[0,0.75],[0,0.5],[0,0.25]];outlineConnect=0;gradientColor=none;html=1;whiteSpace=wrap;fontSize=12;fontStyle=0;container=1;pointerEvents=0;collapsible=0;recursiveResize=0;shape=mxgraph.aws4.group;grIcon=mxgraph.aws4.group_security_group;grStroke=0;strokeColor=#248814;fillColor=#E9F3E6;verticalAlign=top;align=left;spacingLeft=30;fontColor=#248814;dashed=0;" parent="BOOuBiqsjelleKGZFZXg-5" vertex="1">
          <mxGeometry x="536" y="84" width="320" height="270" as="geometry" />
        </mxCell>
        <mxCell id="BOOuBiqsjelleKGZFZXg-10" value="Private subnet" style="points=[[0,0],[0.25,0],[0.5,0],[0.75,0],[1,0],[1,0.25],[1,0.5],[1,0.75],[1,1],[0.75,1],[0.5,1],[0.25,1],[0,1],[0,0.75],[0,0.5],[0,0.25]];outlineConnect=0;gradientColor=none;html=1;whiteSpace=wrap;fontSize=12;fontStyle=0;container=1;pointerEvents=0;collapsible=0;recursiveResize=0;shape=mxgraph.aws4.group;grIcon=mxgraph.aws4.group_security_group;grStroke=0;strokeColor=#147EBA;fillColor=#E6F2F8;verticalAlign=top;align=left;spacingLeft=30;fontColor=#147EBA;dashed=0;" parent="BOOuBiqsjelleKGZFZXg-5" vertex="1">
          <mxGeometry x="896" y="84" width="320" height="270" as="geometry" />
        </mxCell>
        <mxCell id="0xDUgUqYRsf32A7aN2De-2" value="Availability Zone" style="fillColor=none;strokeColor=#147EBA;dashed=1;verticalAlign=top;fontStyle=0;fontColor=#147EBA;whiteSpace=wrap;html=1;" parent="BOOuBiqsjelleKGZFZXg-5" vertex="1">
          <mxGeometry x="156" y="419" width="1080" height="320" as="geometry" />
        </mxCell>
        <mxCell id="0xDUgUqYRsf32A7aN2De-3" value="Public subnet" style="points=[[0,0],[0.25,0],[0.5,0],[0.75,0],[1,0],[1,0.25],[1,0.5],[1,0.75],[1,1],[0.75,1],[0.5,1],[0.25,1],[0,1],[0,0.75],[0,0.5],[0,0.25]];outlineConnect=0;gradientColor=none;html=1;whiteSpace=wrap;fontSize=12;fontStyle=0;container=1;pointerEvents=0;collapsible=0;recursiveResize=0;shape=mxgraph.aws4.group;grIcon=mxgraph.aws4.group_security_group;grStroke=0;strokeColor=#248814;fillColor=#E9F3E6;verticalAlign=top;align=left;spacingLeft=30;fontColor=#248814;dashed=0;" parent="BOOuBiqsjelleKGZFZXg-5" vertex="1">
          <mxGeometry x="176" y="444" width="320" height="270" as="geometry" />
        </mxCell>
        <mxCell id="0xDUgUqYRsf32A7aN2De-4" value="Public subnet" style="points=[[0,0],[0.25,0],[0.5,0],[0.75,0],[1,0],[1,0.25],[1,0.5],[1,0.75],[1,1],[0.75,1],[0.5,1],[0.25,1],[0,1],[0,0.75],[0,0.5],[0,0.25]];outlineConnect=0;gradientColor=none;html=1;whiteSpace=wrap;fontSize=12;fontStyle=0;container=1;pointerEvents=0;collapsible=0;recursiveResize=0;shape=mxgraph.aws4.group;grIcon=mxgraph.aws4.group_security_group;grStroke=0;strokeColor=#248814;fillColor=#E9F3E6;verticalAlign=top;align=left;spacingLeft=30;fontColor=#248814;dashed=0;" parent="BOOuBiqsjelleKGZFZXg-5" vertex="1">
          <mxGeometry x="536" y="444" width="320" height="270" as="geometry" />
        </mxCell>
        <mxCell id="0xDUgUqYRsf32A7aN2De-5" value="Private subnet" style="points=[[0,0],[0.25,0],[0.5,0],[0.75,0],[1,0],[1,0.25],[1,0.5],[1,0.75],[1,1],[0.75,1],[0.5,1],[0.25,1],[0,1],[0,0.75],[0,0.5],[0,0.25]];outlineConnect=0;gradientColor=none;html=1;whiteSpace=wrap;fontSize=12;fontStyle=0;container=1;pointerEvents=0;collapsible=0;recursiveResize=0;shape=mxgraph.aws4.group;grIcon=mxgraph.aws4.group_security_group;grStroke=0;strokeColor=#147EBA;fillColor=#E6F2F8;verticalAlign=top;align=left;spacingLeft=30;fontColor=#147EBA;dashed=0;" parent="BOOuBiqsjelleKGZFZXg-5" vertex="1">
          <mxGeometry x="896" y="444" width="320" height="270" as="geometry" />
        </mxCell>
        <mxCell id="BOOuBiqsjelleKGZFZXg-17" value="EKS" style="points=[[0,0],[0.25,0],[0.5,0],[0.75,0],[1,0],[1,0.25],[1,0.5],[1,0.75],[1,1],[0.75,1],[0.5,1],[0.25,1],[0,1],[0,0.75],[0,0.5],[0,0.25]];outlineConnect=0;gradientColor=none;html=1;whiteSpace=wrap;fontSize=12;fontStyle=0;container=1;pointerEvents=0;collapsible=0;recursiveResize=0;shape=mxgraph.aws4.group;grIcon=mxgraph.aws4.group_ec2_instance_contents;strokeColor=#D86613;fillColor=none;verticalAlign=top;align=left;spacingLeft=30;fontColor=#D86613;dashed=0;" parent="BOOuBiqsjelleKGZFZXg-5" vertex="1">
          <mxGeometry x="516" y="20" width="360" height="750" as="geometry" />
        </mxCell>
        <mxCell id="BOOuBiqsjelleKGZFZXg-18" value="" style="sketch=0;points=[[0,0,0],[0.25,0,0],[0.5,0,0],[0.75,0,0],[1,0,0],[0,1,0],[0.25,1,0],[0.5,1,0],[0.75,1,0],[1,1,0],[0,0.25,0],[0,0.5,0],[0,0.75,0],[1,0.25,0],[1,0.5,0],[1,0.75,0]];outlineConnect=0;fontColor=#232F3E;fillColor=#ED7100;strokeColor=#ffffff;dashed=0;verticalLabelPosition=bottom;verticalAlign=top;align=center;html=1;fontSize=12;fontStyle=0;aspect=fixed;shape=mxgraph.aws4.resourceIcon;resIcon=mxgraph.aws4.eks;" parent="BOOuBiqsjelleKGZFZXg-17" vertex="1">
          <mxGeometry width="30" height="30" as="geometry" />
        </mxCell>
        <mxCell id="fO4uT-srEPm4jEMGz6wv-29" value="" style="sketch=0;outlineConnect=0;fontColor=#232F3E;gradientColor=none;fillColor=#8C4FFF;strokeColor=none;dashed=0;verticalLabelPosition=bottom;verticalAlign=top;align=center;html=1;fontSize=12;fontStyle=0;aspect=fixed;pointerEvents=1;shape=mxgraph.aws4.application_load_balancer;" parent="BOOuBiqsjelleKGZFZXg-5" vertex="1">
          <mxGeometry x="40" y="356" width="78" height="78" as="geometry" />
        </mxCell>
        <mxCell id="K7cg77Lro_AQ_rNfYcJF-8" value="" style="sketch=0;pointerEvents=1;shadow=0;dashed=0;html=1;strokeColor=none;fillColor=#434445;aspect=fixed;labelPosition=center;verticalLabelPosition=bottom;verticalAlign=top;align=center;outlineConnect=0;shape=mxgraph.vvd.web_browser;" parent="1" vertex="1">
          <mxGeometry x="-889" y="220" width="98.59" height="70" as="geometry" />
        </mxCell>
        <mxCell id="NcGLGOqD1bFiaXHMgW1m-3" style="edgeStyle=orthogonalEdgeStyle;rounded=0;orthogonalLoop=1;jettySize=auto;html=1;" parent="1" source="NcGLGOqD1bFiaXHMgW1m-1" target="K7cg77Lro_AQ_rNfYcJF-5" edge="1">
          <mxGeometry relative="1" as="geometry" />
        </mxCell>
        <mxCell id="NcGLGOqD1bFiaXHMgW1m-1" value="Route53" style="sketch=0;points=[[0,0,0],[0.25,0,0],[0.5,0,0],[0.75,0,0],[1,0,0],[0,1,0],[0.25,1,0],[0.5,1,0],[0.75,1,0],[1,1,0],[0,0.25,0],[0,0.5,0],[0,0.75,0],[1,0.25,0],[1,0.5,0],[1,0.75,0]];outlineConnect=0;fontColor=#232F3E;fillColor=#8C4FFF;strokeColor=#ffffff;dashed=0;verticalLabelPosition=bottom;verticalAlign=top;align=center;html=1;fontSize=12;fontStyle=0;aspect=fixed;shape=mxgraph.aws4.resourceIcon;resIcon=mxgraph.aws4.route_53;" parent="1" vertex="1">
          <mxGeometry x="-871" y="412" width="60" height="60" as="geometry" />
        </mxCell>
        <mxCell id="K7cg77Lro_AQ_rNfYcJF-13" style="edgeStyle=orthogonalEdgeStyle;rounded=0;orthogonalLoop=1;jettySize=auto;html=1;exitX=0;exitY=0.5;exitDx=0;exitDy=0;exitPerimeter=0;startArrow=classic;startFill=1;endArrow=none;endFill=0;entryX=1;entryY=0.5;entryDx=0;entryDy=0;entryPerimeter=0;" parent="1" source="K7cg77Lro_AQ_rNfYcJF-1" target="NcGLGOqD1bFiaXHMgW1m-1" edge="1">
          <mxGeometry relative="1" as="geometry">
            <mxPoint x="-680" y="440" as="targetPoint" />
            <mxPoint x="-520" y="720" as="sourcePoint" />
            <Array as="points">
              <mxPoint x="-680" y="120" />
              <mxPoint x="-680" y="442" />
            </Array>
          </mxGeometry>
        </mxCell>
        <mxCell id="K7cg77Lro_AQ_rNfYcJF-15" value="Authenticate" style="edgeLabel;html=1;align=center;verticalAlign=middle;resizable=0;points=[];" parent="K7cg77Lro_AQ_rNfYcJF-13" vertex="1" connectable="0">
          <mxGeometry x="0.2051" relative="1" as="geometry">
            <mxPoint x="40" y="-237" as="offset" />
          </mxGeometry>
        </mxCell>
        <mxCell id="NcGLGOqD1bFiaXHMgW1m-4" style="edgeStyle=orthogonalEdgeStyle;rounded=0;orthogonalLoop=1;jettySize=auto;html=1;" parent="1" source="K7cg77Lro_AQ_rNfYcJF-8" target="NcGLGOqD1bFiaXHMgW1m-1" edge="1">
          <mxGeometry relative="1" as="geometry">
            <Array as="points">
              <mxPoint x="-841" y="320" />
              <mxPoint x="-841" y="320" />
            </Array>
          </mxGeometry>
        </mxCell>
        <mxCell id="NcGLGOqD1bFiaXHMgW1m-5" value="Browser" style="text;html=1;strokeColor=none;fillColor=none;align=center;verticalAlign=middle;whiteSpace=wrap;rounded=0;" parent="1" vertex="1">
          <mxGeometry x="-871" y="190" width="60" height="30" as="geometry" />
        </mxCell>
      </root>
    </mxGraphModel>
  </diagram>
</mxfile>
